G04 MADE WITH FRITZING*
G04 WWW.FRITZING.ORG*
G04 DOUBLE SIDED*
G04 HOLES PLATED*
G04 CONTOUR ON CENTER OF CONTOUR VECTOR*
%ASAXBY*%
%FSLAX23Y23*%
%MOIN*%
%OFA0B0*%
%SFA1.0B1.0*%
%ADD10C,0.080000*%
%ADD11C,0.085000*%
%ADD12C,0.049370*%
%ADD13C,0.135984*%
%ADD14R,0.080000X0.079972*%
%LNMASK0*%
G90*
G70*
G54D10*
X1616Y1346D03*
X1516Y1346D03*
X1416Y1346D03*
X1316Y1346D03*
X1216Y1346D03*
X1116Y1346D03*
X1016Y1346D03*
X916Y1346D03*
X816Y1346D03*
X716Y1346D03*
X616Y1346D03*
X516Y1346D03*
X416Y1346D03*
X316Y1346D03*
X216Y1346D03*
X1616Y746D03*
X1516Y746D03*
X1416Y746D03*
X1316Y746D03*
X1216Y746D03*
X1116Y746D03*
X1016Y746D03*
X916Y746D03*
X816Y746D03*
X716Y746D03*
X616Y746D03*
X516Y746D03*
X416Y746D03*
X316Y746D03*
X216Y746D03*
G54D11*
X1216Y1946D03*
X1216Y1546D03*
X1116Y1946D03*
X1116Y1546D03*
X1016Y1946D03*
X1016Y1546D03*
X916Y1946D03*
X916Y1546D03*
G54D12*
X1216Y2046D03*
X1116Y2046D03*
X1016Y2046D03*
X916Y2046D03*
X216Y46D03*
X616Y46D03*
X216Y2046D03*
X316Y2046D03*
X416Y2046D03*
X516Y2046D03*
X616Y2046D03*
X716Y2046D03*
X816Y2046D03*
X516Y46D03*
G54D11*
X816Y546D03*
X816Y146D03*
G54D12*
X416Y46D03*
X816Y46D03*
X1016Y46D03*
X1216Y46D03*
X1416Y46D03*
X1616Y46D03*
G54D11*
X1616Y546D03*
X1616Y146D03*
X1416Y546D03*
X1416Y146D03*
G54D13*
X1616Y1846D03*
X116Y346D03*
G54D14*
X1616Y1347D03*
G04 End of Mask0*
M02*