; NON-PLATED HOLES START AT T1
; THROUGH (PLATED) HOLES START AT T100
M48
INCH
T1C0.125984
T100C0.036000
T101C0.035000
T102C0.015748
%
T1
X016163Y018464
X001163Y003464
T100
X011163Y013464
X009163Y007464
X011163Y007464
X007163Y013464
X009163Y013464
X012163Y007464
X016163Y007464
X013163Y007464
X005163Y013464
X015163Y007464
X007163Y007464
X003163Y007464
X003163Y013464
X014163Y007464
X006163Y013464
X002163Y013464
X006163Y007464
X005163Y007464
X004163Y007464
X015163Y013464
X008163Y007464
X010163Y013464
X013163Y013464
X016163Y013464
X008163Y013464
X014163Y013464
X012163Y013464
X002163Y007464
X010163Y007464
X004163Y013464
T101
X016163Y005464
X009163Y015464
X008163Y001464
X011163Y015464
X016163Y001464
X014163Y005464
X011163Y019464
X012163Y019464
X010163Y015464
X012163Y015464
X014163Y001464
X010163Y019464
X008163Y005464
X009163Y019464
T102
X003163Y020464
X012163Y020464
X010163Y000464
X005163Y000464
X002163Y000464
X010163Y020464
X012163Y000464
X016163Y000464
X007163Y020464
X011163Y020464
X008163Y020464
X004163Y020464
X004163Y000464
X005163Y020464
X006163Y000464
X014163Y000464
X008163Y000464
X002163Y020464
X009163Y020464
X006163Y020464
T00
M30
